<?xml version="1.0" encoding="UTF-8"?>
<!DOCTYPE svg PUBLIC "-//W3C//DTD SVG 1.1//EN" "http://www.w3.org/Graphics/SVG/1.1/DTD/svg11.dtd">
<!-- Creator: CorelDRAW -->
<svg xmlns="http://www.w3.org/2000/svg" xml:space="preserve" width="993px" height="1000px" style="shape-rendering:geometricPrecision; text-rendering:geometricPrecision; image-rendering:optimizeQuality; fill-rule:evenodd; clip-rule:evenodd"
viewBox="0 0 1015.41 1022.72"
 xmlns:xlink="http://www.w3.org/1999/xlink">
 <defs>
  <style type="text/css">
   <![CDATA[
    .str0 {stroke:black;stroke-width:6.70569}
    .fil1 {fill:none}
    .fil3 {fill:black}
    .fil2 {fill:white}
    .fil0 {fill:black;fill-rule:nonzero}
   ]]>
  </style>
 </defs>
 <g id="Layer_x0020_1">
  <metadata id="CorelCorpID_0Corel-Layer"/>
  <path class="fil0" d="M-0 817.177m35.3113 20.1627c2.0667,1.61433 4.09159,2.69774 6.08606,3.25781 1.98307,0.549938 3.88885,0.666514 5.71479,0.325654 1.82721,-0.34086 3.56699,-1.10368 5.22948,-2.29985 1.65361,-1.18477 3.20713,-2.69393 4.64026,-4.52875l23.3305 -29.8614 -6.03918 -6.30021 2.1592 -2.76363 17.2559 13.4823 -2.1592 2.76363 -6.52703 -3.51884 -23.0885 29.5522c-1.75625,2.24664 -3.79254,4.21323 -6.09493,5.90866 -2.31506,1.68529 -4.88735,2.79657 -7.71433,3.35285 -2.82698,0.557541 -5.9226,0.366203 -9.25897,-0.557541 -3.33511,-0.919942 -6.90083,-2.85359 -10.6845,-5.80983 -3.53912,-2.76489 -6.2812,-5.59188 -8.2478,-8.48095 -1.95519,-2.90048 -3.20206,-5.83137 -3.71778,-8.7914 -0.501786,-2.95116 -0.30538,-5.91753 0.614562,-8.8801 0.907271,-2.9727 2.48866,-5.87572 4.74036,-8.75592l22.8554 -29.2544 -4.99379 -5.4829 2.16047 -2.76363 24.1783 18.8905 -2.1592 2.76489 -7.26323 -4.09412 -23.2697 29.7828c-1.49396,1.91211 -2.62424,3.83689 -3.35665,5.76041 -0.733673,1.92478 -1.02638,3.81662 -0.902202,5.68058 0.122912,1.86523 0.723536,3.70764 1.78286,5.49177 1.05933,1.78413 2.63691,3.4935 4.72896,5.12937zm25.875 25.0754m12.1911 8.53671l2.01221 -2.87387 9.12086 4.80625 31.259 -44.6425 -2.00081 -1.40145c-3.43774,-2.40629 -6.21911,-4.23477 -8.34917,-5.50698 -2.12752,-1.24813 -3.74946,-2.10345 -4.86961,-2.58876l-7.92341 9.0575 -3.57206 -2.50006 10.331 -14.7546 51.2481 35.8841 -10.331 14.7546 -3.61134 -2.52921 5.80222 -10.5426c-0.838845,-0.888263 -2.32773,-2.18961 -4.50341,-3.91419 -2.18455,-1.70937 -4.82273,-3.65696 -7.91074,-5.81996l-1.93238 -1.3533 -31.2033 44.5627 7.6345 6.92744 -2.01221 2.8726 -29.1885 -20.4377zm61.4688 40.6358m33.4727 -18.7536c-2.10852,3.96487 -3.75453,7.6193 -4.93043,10.9848 -1.16197,3.37312 -1.73091,6.43072 -1.69036,9.21969 0.0468841,2.77123 0.77042,5.25355 2.16681,7.44443 1.38878,2.20482 3.5784,4.09285 6.57518,5.68565 2.99425,1.59279 5.78322,2.35307 8.37451,2.26311 2.56849,-0.0823639 5.02927,-0.871791 7.35573,-2.38222 2.33407,-1.52563 4.55156,-3.70638 6.69809,-6.55617 2.13133,-2.8574 4.23984,-6.266 6.34836,-10.2309 2.08571,-3.92179 3.71651,-7.54707 4.87848,-10.8834 1.14549,-3.34398 1.69923,-6.3737 1.62067,-9.08918 -0.0722268,-2.72815 -0.817304,-5.16739 -2.19342,-7.32786 -1.39765,-2.15413 -3.5936,-4.02823 -6.58912,-5.62102 -2.99678,-1.59279 -5.77815,-2.36575 -8.36057,-2.32773 -2.58876,0.0519526 -5.028,0.798297 -7.32912,2.26437 -2.29479,1.45341 -4.49707,3.60627 -6.6284,6.42692 -2.11739,2.82825 -4.2107,6.20771 -6.29641,10.1295zm-14.0817 -7.48625c2.67113,-5.02293 5.62989,-9.01822 8.87123,-11.9732 3.24261,-2.95496 6.73864,-4.95578 10.5198,-5.99103 3.7786,-1.03398 7.7929,-1.14549 12.0543,-0.328189 4.27025,0.803365 8.78126,2.47852 13.528,5.00266 4.5731,2.43164 8.39859,5.18893 11.4359,8.27061 3.03353,3.0614 5.19907,6.4586 6.48521,10.1865 1.28361,3.72792 1.63841,7.77642 1.04412,12.1392 -0.579082,4.37036 -2.20735,9.07271 -4.87848,14.0956 -2.67746,5.0356 -5.67424,9.03089 -8.99541,11.9973 -3.3085,2.97524 -6.87802,4.97478 -10.7022,6.02397 -3.82422,1.04666 -7.87526,1.19491 -12.1316,0.435895 -4.27025,-0.766618 -8.7103,-2.36701 -13.2834,-4.79738 -4.5731,-2.4329 -8.38212,-5.21807 -11.4055,-8.33016 -3.02466,-3.11209 -5.16739,-6.55237 -6.451,-10.317 -1.26967,-3.7558 -1.62194,-7.84105 -1.00611,-12.2482 0.60189,-4.41344 2.23777,-9.13099 4.91523,-14.1666zm48.2526 61.6424m38.6908 17.2267l-2.4101 -1.07327 0.415621 -59.3641 -20.1741 45.3103 7.3646 4.69601 -1.42553 3.20459 -20.9192 -9.31346 1.4268 -3.20459 8.059 2.17061 22.3067 -50.1014 -7.02628 -4.492 1.4268 -3.20332 23.1037 10.2866 -0.410553 46.177 34.3711 -31.0575 23.5992 10.5071 -1.4268 3.20332 -8.05266 -2.22129 -22.3067 50.1014 7.01868 4.54269 -1.42553 3.20459 -29.2582 -13.0262 1.4268 -3.20459 8.4176 2.33027 20.1728 -45.3103 -44.2738 39.8375zm51.1797 21.1283m69.7585 -42.0462l-7.97663 -3.58347 0.966826 -3.37059 22.0267 6.31541 -0.966826 3.37185 -8.28455 -1.0796 -16.4398 57.3342 -5.40434 -1.54971 -23.9096 -60.7022 -12.9425 45.1392 7.96143 3.63035 -0.966826 3.37185 -22.0254 -6.31541 0.966826 -3.37185 8.29722 1.03145 15.117 -52.718 -7.59776 -3.47449 0.966826 -3.37185 21.1903 6.07719 18.9868 48.2589 10.0345 -34.9933zm3.22867 62.698m2.27071 -3.16151l8.34537 0.157125 9.52381 -54.0105 -7.9044 -2.65845 0.609493 -3.45422 53.994 9.52127 -2.84346 16.1243 -4.29306 -0.756481 0.290175 -10.5172c-0.994703,-0.307914 -2.18455,-0.634836 -3.60374,-0.985833 -1.42173,-0.34973 -2.86246,-0.670316 -4.33868,-0.980765 -1.47622,-0.309182 -2.87514,-0.589219 -4.19549,-0.838845 -1.32162,-0.249626 -2.33914,-0.42956 -3.06521,-0.557541l-9.84566 -1.73598 -4.10046 23.2596 16.6084 2.92836 2.6876 -6.74751 4.21323 0.742543 -3.43521 19.4822 -4.21323 -0.74381 -0.185002 -7.4381 -16.6096 -2.92962 -4.31207 24.4558 11.977 2.11105c1.95266,0.344661 3.79888,0.63737 5.53486,0.893332 1.75245,0.258496 3.3085,0.484047 4.70868,0.66398 1.40019,0.179934 2.60777,0.309182 3.62655,0.389011 0.998504,0.092501 1.74231,0.125447 2.2441,0.112775l4.76444 -11.2598 4.29433 0.757748 -4.00796 17.5347 -57.0769 -10.0649 0.608226 -3.45422zm63.3252 13.9791m6.92871 -19.2035l4.21323 0.368737 1.25447 10.4754c0.60189,0.824907 1.39005,1.60166 2.34547,2.3442 0.971895,0.742543 2.0629,1.4306 3.29202,2.04769 1.22912,0.618363 2.56595,1.14549 3.99402,1.55098 1.42806,0.42069 2.88401,0.695659 4.38683,0.827441 2.48232,0.216681 4.62885,0.125447 6.42565,-0.292709 1.81201,-0.400415 3.30089,-1.04412 4.46413,-1.94632 1.1645,-0.884462 2.06924,-2.00588 2.68,-3.35158 0.61076,-1.34443 1.00484,-2.84092 1.15056,-4.50721 0.167262,-1.90958 -0.183735,-3.53658 -1.05426,-4.86327 -0.855318,-1.32543 -2.06797,-2.50133 -3.59107,-3.53785 -1.53704,-1.04032 -3.29709,-1.98434 -5.2789,-2.84853 -1.98054,-0.864188 -4.00796,-1.76512 -6.0962,-2.72181 -2.08824,-0.955422 -4.10046,-2.02108 -6.05565,-3.17925 -1.95393,-1.17464 -3.67343,-2.5913 -5.15725,-4.23477 -1.46861,-1.65868 -2.59636,-3.61768 -3.38706,-5.87445 -0.772954,-2.2555 -1.03018,-4.95958 -0.753947,-8.11095 0.494184,-5.65017 2.7801,-9.77723 6.89196,-12.3951 4.09539,-2.6027 9.84059,-3.5974 17.2546,-2.94863 1.55098,0.135584 3.12856,0.338326 4.73529,0.594288 1.60926,0.239489 3.16151,0.539801 4.68081,0.854051 1.50029,0.328189 2.9499,0.685521 4.33361,1.05299 1.38118,0.383943 2.66479,0.760283 3.85083,1.11001l-1.33556 15.2677 -4.24491 -0.371271 -1.38498 -8.98907c-1.31529,-1.15183 -2.8574,-2.12626 -4.61238,-2.9537 -1.75372,-0.828708 -3.91165,-1.36217 -6.4586,-1.58519 -2.17061,-0.190071 -4.05104,-0.140652 -5.6413,0.163461 -1.58899,0.290175 -2.89921,0.783091 -3.96107,1.44707 -1.04666,0.68172 -1.84622,1.54971 -2.39742,2.5875 -0.537266,1.05553 -0.871791,2.2441 -0.988367,3.58347 -0.150789,1.71444 0.230619,3.19445 1.10875,4.44005 0.897133,1.23039 2.09838,2.33914 3.62782,3.29582 1.5117,0.971895 3.27428,1.88297 5.27256,2.73195 1.99954,0.848982 4.04344,1.75118 6.12914,2.72308 2.08698,0.973162 4.09792,2.05403 6.06832,3.2312 1.96913,1.19238 3.68864,2.60904 5.15472,4.26772 1.46735,1.65868 2.59763,3.59867 3.38706,5.85671 0.8059,2.25931 1.06566,4.9317 0.794495,8.03239 -0.272435,3.11969 -0.96049,5.90613 -2.07937,8.34157 -1.11762,2.43671 -2.72561,4.46666 -4.82399,6.06072 -2.09838,1.60926 -4.69855,2.74842 -7.82077,3.44535 -3.10322,0.682987 -6.81973,0.851516 -11.1305,0.473909 -2.07304,-0.181201 -4.122,-0.458704 -6.14688,-0.833777 -2.02362,-0.375073 -3.92813,-0.78816 -5.72873,-1.27474 -1.81708,-0.471375 -3.48336,-0.99597 -4.99886,-1.53957 -1.52944,-0.562609 -2.81685,-1.08594 -3.87617,-1.58899l1.50789 -17.2267zm71.3703 25.1045m39.5765 -9.33627c2.61157,-0.228085 4.8316,-0.817304 6.67275,-1.76766 1.82468,-0.950353 3.29836,-2.16554 4.40204,-3.65949 1.10241,-1.49649 1.85509,-3.24007 2.2555,-5.24848 0.400415,-1.99447 0.508122,-4.15875 0.30538,-6.47761l-3.30343 -37.7506 -8.71284 -0.487848 -0.306647 -3.4935 21.8163 -1.90958 0.30538 3.49477 -7.17453 1.8779 3.26922 37.359c0.248359,2.84092 0.100104,5.66664 -0.427025,8.47715 -0.544869,2.81178 -1.66755,5.379 -3.35665,7.71433 -1.68656,2.33533 -4.08145,4.307 -7.15046,5.9074 -3.06774,1.60166 -6.99333,2.61917 -11.7768,3.03733 -4.47426,0.391546 -8.40746,0.193872 -11.8161,-0.577815 -3.4086,-0.78816 -6.31922,-2.08064 -8.71537,-3.89391 -2.37968,-1.81581 -4.25885,-4.11946 -5.60582,-6.91477 -1.36344,-2.7915 -2.18708,-5.99356 -2.50513,-9.63531l-3.23627 -36.9839 -7.39121 -0.603158 -0.30538 -3.49477 30.5672 -2.67366 0.30538 3.4935 -8.10335 1.96026 3.29329 37.6517c0.211612,2.4177 0.698193,4.59591 1.47368,6.50168 0.776755,1.90831 1.85256,3.49223 3.21473,4.77077 1.36217,1.27981 3.0576,2.21749 5.04954,2.80037 1.99194,0.582883 4.3108,0.757748 6.95659,0.525862zm31.444 4.41851m44.2662 -68.3709l-8.73945 0.276236 -0.608226 -3.45422 22.5652 -3.97881 0.609493 3.45422 -7.91961 2.66099 10.3576 58.7394 -5.53739 0.975696 -48.0993 -44.0786 8.1553 46.2455 8.74705 -0.226818 0.609493 3.45422 -22.5652 3.97881 -0.609493 -3.45422 7.90947 -2.71041 -9.52254 -54.0092 -8.3517 0.207811 -0.609493 -3.45422 21.7099 -3.82802 38.2207 35.0528 -6.32175 -35.8511zm30.6888 55.5868m37.0676 -16.7161c2.52034,-0.723536 4.58704,-1.72457 6.21278,-3.00945 1.61053,-1.27981 2.82572,-2.75349 3.62275,-4.43118 0.79703,-1.67896 1.20378,-3.53405 1.21392,-5.58301 0.0126714,-2.03376 -0.295243,-4.17775 -0.936415,-6.41552l-10.4463 -36.4277 -8.64695 1.18351 -0.966826 -3.37059 21.051 -6.03664 0.966826 3.37185 -6.68415 3.21219 10.3373 36.0488c0.785625,2.74082 1.17971,5.54373 1.19871,8.40366 0.00253428,2.86373 -0.61076,5.59821 -1.82341,8.21232 -1.21012,2.6141 -3.18432,5.00646 -5.89219,7.16313 -2.70534,2.15667 -6.36483,3.90532 -10.981,5.22821 -4.31714,1.23799 -8.21612,1.79427 -11.7084,1.68783 -3.49603,-0.122912 -6.59925,-0.836311 -9.29826,-2.16047 -2.68253,-1.32796 -4.96591,-3.22993 -6.82227,-5.71606 -1.87156,-2.48106 -3.29076,-5.4677 -4.29813,-8.98147l-10.2334 -35.6864 -7.36967 0.817304 -0.966826 -3.37059 29.4952 -8.45814 0.966826 3.37185 -7.58128 3.46942 10.4184 36.3326c0.667782,2.33153 1.56111,4.37796 2.68633,6.10127 1.12522,1.72331 2.48359,3.07281 4.06498,4.06878 1.58139,0.99597 3.42507,1.59406 5.49177,1.7854 2.06543,0.191338 4.37543,-0.0798297 6.92871,-0.810968zm36.9028 -2.95243m38.6908 -17.2267l-2.4101 1.07327 -43.8379 -40.0314 20.1728 45.3103 8.41886 -2.33027 1.4268 3.20459 -20.9192 9.31346 -1.4268 -3.20332 7.006 -4.53762 -22.3067 -50.1014 -8.03872 2.21622 -1.4268 -3.20459 23.1037 -10.2866 34.0417 31.2045 -0.0810968 -46.324 23.5979 -10.5071 1.4268 3.20332 -7.03895 4.49834 22.3067 50.1014 8.07293 -2.17694 1.4268 3.20459 -29.2582 13.0262 -1.4268 -3.20332 7.3646 -4.69728 -20.1741 -45.3103 -0.0202742 59.558zm67.8983 -30.9625m-5.33972 -19.704l3.66329 -2.11485 7.03642 7.86005c0.966826,0.33199 2.05783,0.515725 3.26541,0.57528 1.22279,0.0519526 2.5102,-0.0101371 3.87237,-0.210345 1.36091,-0.198941 2.75856,-0.533465 4.16128,-1.02005 1.41032,-0.473909 2.76109,-1.08467 4.06624,-1.83862 2.1592,-1.2456 3.86477,-2.55202 5.09643,-3.92559 1.25447,-1.36724 2.10472,-2.74842 2.54188,-4.15494 0.444765,-1.39258 0.542335,-2.82952 0.271167,-4.28293 -0.2699,-1.45214 -0.8059,-2.90301 -1.64221,-4.35135 -0.957956,-1.65995 -2.17948,-2.7915 -3.65316,-3.37819 -1.45974,-0.595555 -3.12856,-0.862921 -4.97098,-0.840112 -1.85509,0.0304113 -3.83943,0.266099 -5.95808,0.694391 -2.11739,0.42956 -4.2956,0.854051 -6.55364,1.2684 -2.26057,0.414354 -4.51861,0.696926 -6.78552,0.869256 -2.27451,0.158392 -4.49454,-0.0164728 -6.65374,-0.510656 -2.15413,-0.516992 -4.20183,-1.47368 -6.14308,-2.87007 -1.92605,-1.40399 -3.68864,-3.47196 -5.27003,-6.21151 -2.83585,-4.91143 -3.3313,-9.60364 -1.46354,-14.107 1.86143,-4.4806 5.99736,-8.59119 12.442,-12.3115 1.3495,-0.77929 2.75729,-1.51803 4.22084,-2.2289 1.45467,-0.727337 2.89794,-1.37104 4.32347,-1.9856 1.41793,-0.591753 2.80924,-1.13155 4.15368,-1.6232 1.35204,-0.477711 2.61917,-0.906003 3.79128,-1.30008l7.66365 13.2733 -3.6899 2.13006 -6.29134 -6.56884c-1.73725,-0.188804 -3.56066,-0.102638 -5.4715,0.22555 -1.91211,0.326922 -3.98641,1.12775 -6.2001,2.40629 -1.88804,1.08974 -3.39973,2.20862 -4.52748,3.37059 -1.13536,1.14803 -1.92605,2.30366 -2.4139,3.45675 -0.466307,1.15816 -0.624699,2.32773 -0.480245,3.49477 0.164728,1.17337 0.572746,2.33787 1.24433,3.50237 0.860386,1.49015 2.02235,2.48486 3.45548,3.00185 1.44074,0.491649 3.0614,0.710864 4.86201,0.618363 1.79553,-0.0709597 3.7634,-0.337059 5.88585,-0.786892 2.12499,-0.451101 4.31714,-0.884462 6.58405,-1.28361 2.26691,-0.401683 4.53509,-0.669049 6.82354,-0.835044 2.29605,-0.153324 4.51735,0.0215413 6.67021,0.539801 2.15413,0.516992 4.19296,1.45848 6.13421,2.85486 1.95519,1.38752 3.70131,3.42761 5.25735,6.12408 1.56618,2.71167 2.60143,5.38787 3.08168,8.02478 0.481512,2.63691 0.329456,5.22314 -0.476444,7.73207 -0.794495,2.5216 -2.27198,4.94564 -4.42865,7.30758 -2.1516,2.33914 -5.09896,4.60858 -8.84589,6.77285 -1.80314,1.04032 -3.64049,1.98941 -5.51458,2.84219 -1.87156,0.854051 -3.66963,1.608 -5.42335,2.24157 -1.75879,0.657644 -3.42507,1.18351 -4.97858,1.60673 -1.57505,0.416888 -2.92962,0.72607 -4.08525,0.921209l-8.64695 -14.975zm53.1514 -7.83218m19.7762 -18.5699l7.60789 -3.45422 1.93745 2.98284 -26.5453 17.2381 -1.93619 -2.98284 6.24952 -5.54373 -29.8436 -45.954 -7.63324 3.4124 -1.90958 -2.94103 26.544 -17.2381 1.91084 2.94103 -6.22418 5.58681 29.8424 45.9527zm12.5953 -1.09861m11.2243 -80.6723l-7.8043 3.94333 -2.01095 -2.87387 18.7688 -13.1428 2.01221 2.87387 -6.05185 5.75787 34.2114 48.8596 -4.60605 3.2236 -62.2215 -19.6204 26.9343 38.4665 7.83218 -3.90278 2.01221 2.8726 -18.7701 13.1428 -2.01095 -2.8726 6.02271 -5.79969 -31.4567 -44.9238 -7.47991 3.71651 -2.01221 -2.8726 18.058 -12.6435 49.4526 15.6149 -20.8799 -29.8195zm47.0121 40.352m11.7274 -9.16267l-2.1592 -2.76363 7.26323 -7.31772 -33.5525 -42.9458 -1.92605 1.50409c-3.30596,2.58369 -5.86811,4.70868 -7.70673,6.3737 -1.81581,1.67009 -3.10829,2.97017 -3.89898,3.90152l6.34456 10.2245 -3.43521 2.68506 -11.09 -14.1945 49.3005 -38.5172 11.0887 14.1945 -3.47322 2.71294 -8.38718 -8.63047c-1.09354,0.543602 -2.77376,1.58646 -5.05968,3.16278 -2.27324,1.58899 -4.90762,3.54292 -7.87779,5.86305l-1.85889 1.45341 33.4917 42.8673 8.85729 -5.27509 2.1592 2.76363 -28.0798 21.938z"/>
  <path class="fil1" d="M1015.41 817.37c-338.393,271.787 -676.787,271.787 -1015.18,0"/>
  <path class="fil2 str0" d="M150.072 3.35285l701.361 0 0 218.257c0,340.7 0.838845,397.844 -350.68,594.76 -351.519,-196.916 -350.68,-254.06 -350.68,-594.76l0 -218.257z"/>
  <path class="fil3" d="M446.746 482.935l50.9605 60.8682 50.9605 -60.8682m-101.921 -392.412l101.921 0 0 392.412 -101.921 0 0 -1.22405 0 -391.188z"/>
  <path class="fil3" d="M245.588 482.935l50.9605 60.8682 50.9605 -60.8682m-101.921 -392.412l101.921 0 0 392.412 -101.921 0 0 -1.22405 0 -391.188z"/>
  <path class="fil3" d="M645.223 482.935l50.9605 60.8682 50.9605 -60.8682m-101.921 -392.412l101.921 0 0 392.412 -101.921 0 0 -1.22405 0 -391.188z"/>
  <path class="fil1 str0" d="M497.706 543.804l0 272.566m293.971 -696.339l0 478.689m-189.623 -478.689l0 637.328m-207.135 -637.328l0 634.539m-191.964 -634.539l0 467.498m93.5933 -43.7251l0 143.605m399.635 -143.605l0 150.345"/>
  <rect class="fil3" x="150.072" y="3.35285" width="701.361" height="116.678"/>
 </g>
</svg>
